<?xml version="1.0" encoding="UTF-8"?>
<svg id="Capa_1" data-name="Capa 1" xmlns="http://www.w3.org/2000/svg" viewBox="0 0 1794.78 330.71">
  <defs>
    <style>
      .cls-1 {
        fill: #e20613;
        stroke-width: 0px;
      }
    </style>
  </defs>
  <polygon class="cls-1" points="641.58 294.67 772.14 66.83 724.56 66.83 621.57 247.09 551.26 247.09 654.16 66.83 606.57 66.83 476.4 294.67 641.58 294.67"/>
  <polygon class="cls-1" points="742 247.09 844.9 66.83 797.31 66.83 667.14 294.67 832.32 294.67 859.59 247.09 742 247.09"/>
  <polygon class="cls-1" points="928.58 247.09 1031.48 66.83 983.9 66.83 853.72 294.67 1018.9 294.67 1046.17 247.09 928.58 247.09"/>
  <path class="cls-1" d="M1635.27,156.96h-90.29l24.29-42.54h117.48l27.27-47.59h-165.26l-65.11,114.03c6.1,10.51,7.65,13.17,13.75,23.68h90.4l-24.32,42.54h-117.71l-27.19,47.59h165.18l65.26-114.02c-6.1-10.52-7.64-13.18-13.74-23.7Z"/>
  <polygon class="cls-1" points="1172.18 66.83 1042.01 294.67 1207.19 294.67 1234.46 247.09 1116.86 247.09 1141.15 204.55 1234.46 204.55 1261.72 156.96 1168.31 156.96 1192.6 114.42 1310.23 114.42 1337.5 66.83 1172.18 66.83"/>
  <polygon class="cls-1" points="1361.85 66.83 1334.58 114.42 1392.55 114.42 1289.57 294.67 1337.26 294.67 1440.16 114.42 1499.26 114.42 1526.53 66.83 1361.85 66.83"/>
  <path class="cls-1" d="M283.26,66.83l-51.49,90.13h-71.07l51.65-90.13h-47.59l-51.65,90.13-13.61,23.76c6.13,10.58,7.68,13.25,13.81,23.83h91.28l-51.49,90.13h47.69l130.07-227.84h-47.59Z"/>
  <path class="cls-1" d="M450.44,66.83h-95.6l-130.56,227.84h226.24l38.64-68.86-25.34-45.06,25.34-45.06-38.71-68.86ZM430.4,247.09h-131.27l24.38-42.54h106.97l11.96,21.27-12.03,21.27ZM430.4,156.96h-79.63l24.38-42.54h55.32l11.96,21.27-12.03,21.27Z"/>
</svg>